#define neuron_tree_width 150
#define neuron_tree_height 150
static unsigned char neuron_tree_bits[] = {
   0x00, 0x00, 0x00, 0x00, 0x00, 0x80, 0x3f, 0x00, 0x00, 0x00, 0x00, 0x00,
   0x00, 0x00, 0x00, 0x00, 0x00, 0x00, 0x00, 0x00, 0x00, 0x00, 0x00, 0x00,
   0x78, 0xc0, 0x00, 0x00, 0x00, 0x00, 0x00, 0x00, 0x00, 0x00, 0x00, 0x00,
   0x00, 0x00, 0x00, 0x00, 0x00, 0x00, 0x00, 0xe2, 0x9f, 0x02, 0x00, 0x00,
   0x00, 0x00, 0x00, 0x00, 0x00, 0x00, 0x00, 0x00, 0x00, 0x00, 0x00, 0x00,
   0x00, 0x00, 0x1d, 0x60, 0x05, 0x00, 0x00, 0x00, 0x00, 0x00, 0x00, 0x00,
   0x00, 0x00, 0x00, 0x00, 0x00, 0x00, 0x00, 0x00, 0x00, 0xf1, 0xcf, 0x1d,
   0x00, 0x00, 0x00, 0x00, 0x00, 0x00, 0x00, 0x00, 0x00, 0x00, 0x00, 0x00,
   0x00, 0x00, 0x00, 0xc0, 0x6e, 0x20, 0x26, 0x00, 0x00, 0x00, 0x00, 0x00,
   0x00, 0x00, 0x00, 0x00, 0x00, 0x00, 0x00, 0x00, 0x00, 0x00, 0x80, 0x0b,
   0x80, 0x2c, 0x00, 0x00, 0x00, 0x00, 0x00, 0x00, 0x00, 0x00, 0x00, 0x00,
   0x00, 0x00, 0x00, 0x00, 0x00, 0xf0, 0x04, 0x00, 0x52, 0x00, 0x00, 0x00,
   0x00, 0x00, 0x00, 0x00, 0x00, 0x00, 0x00, 0x00, 0x00, 0x00, 0x00, 0x00,
   0xa0, 0x03, 0x00, 0xd4, 0x00, 0x00, 0x00, 0x00, 0x00, 0x00, 0x00, 0x00,
   0x00, 0x00, 0x00, 0x00, 0x00, 0x00, 0x00, 0x58, 0x00, 0x00, 0x2c, 0x00,
   0x00, 0x00, 0x00, 0x00, 0x00, 0x00, 0x00, 0x00, 0x00, 0x00, 0x00, 0x00,
   0x00, 0x00, 0xd8, 0x01, 0x00, 0xe8, 0x00, 0x00, 0x00, 0x00, 0x00, 0x00,
   0x00, 0x00, 0x00, 0x00, 0x00, 0x00, 0x00, 0x00, 0x00, 0xe0, 0x00, 0x00,
   0x10, 0x01, 0x00, 0xf0, 0x3f, 0x00, 0x00, 0x00, 0x00, 0x00, 0x00, 0x00,
   0x00, 0x00, 0x00, 0x00, 0x9c, 0x00, 0x00, 0xf0, 0x01, 0x00, 0x04, 0xe0,
   0x00, 0x00, 0x00, 0x00, 0x00, 0x00, 0x00, 0x00, 0x00, 0x00, 0x00, 0x68,
   0x00, 0x00, 0x30, 0x00, 0x00, 0xfb, 0x1f, 0x01, 0x00, 0x00, 0x00, 0x00,
   0x00, 0x00, 0x00, 0x00, 0x00, 0x00, 0x48, 0x00, 0x00, 0xe0, 0x01, 0x00,
   0x02, 0x70, 0x01, 0x00, 0x00, 0x00, 0x00, 0x00, 0x00, 0x00, 0x00, 0x00,
   0x00, 0x34, 0x00, 0x00, 0x30, 0x00, 0xc0, 0xfd, 0x8f, 0x06, 0x00, 0x00,
   0x00, 0x00, 0x00, 0x00, 0x00, 0x00, 0x00, 0x00, 0x7c, 0x00, 0x00, 0xe0,
   0x01, 0x00, 0x1f, 0x20, 0x0d, 0x00, 0x00, 0x00, 0x00, 0x00, 0x00, 0x00,
   0x00, 0x00, 0x00, 0x04, 0x00, 0x00, 0x70, 0x00, 0xe0, 0x01, 0xc0, 0x12,
   0x00, 0x00, 0x00, 0x00, 0x00, 0x00, 0x00, 0x00, 0x00, 0x00, 0xfc, 0x00,
   0x00, 0xc0, 0x01, 0x60, 0x03, 0x80, 0x16, 0x00, 0x00, 0x00, 0x00, 0x00,
   0x00, 0x00, 0x00, 0x00, 0x00, 0x10, 0x00, 0x00, 0x70, 0x00, 0x90, 0x00,
   0x00, 0x09, 0x00, 0x00, 0x00, 0x00, 0x00, 0x00, 0x00, 0x00, 0x00, 0x00,
   0xf0, 0x00, 0x00, 0xc0, 0x01, 0xb0, 0x01, 0x00, 0x3b, 0x00, 0x00, 0x00,
   0x00, 0x00, 0x00, 0x00, 0x00, 0x00, 0x00, 0x18, 0x01, 0x00, 0x78, 0x00,
   0xc0, 0x01, 0x00, 0x04, 0x00, 0x00, 0x00, 0x00, 0x00, 0x00, 0x00, 0x00,
   0x00, 0x00, 0x70, 0x03, 0x00, 0xcc, 0x00, 0x30, 0x01, 0x00, 0x1c, 0x00,
   0x00, 0x00, 0x00, 0x00, 0x00, 0x00, 0x00, 0x00, 0x00, 0xb0, 0x04, 0x00,
   0x72, 0x00, 0xd8, 0x00, 0x00, 0x26, 0x00, 0x00, 0x00, 0x00, 0x00, 0x00,
   0x00, 0x00, 0x00, 0x00, 0xa0, 0x0d, 0x00, 0x0e, 0x00, 0x90, 0x00, 0x00,
   0x3c, 0x00, 0x00, 0x00, 0x00, 0x00, 0x00, 0x00, 0x00, 0x00, 0x00, 0x40,
   0x32, 0xc0, 0x31, 0x00, 0x60, 0x01, 0x00, 0x02, 0x00, 0x00, 0x00, 0x00,
   0x00, 0x00, 0x00, 0x00, 0x00, 0x00, 0x80, 0xe6, 0x1f, 0x0f, 0x00, 0x70,
   0x01, 0x00, 0x1e, 0x00, 0x00, 0x00, 0x00, 0x00, 0x00, 0x00, 0x00, 0x00,
   0x00, 0x00, 0x19, 0xe0, 0x03, 0x00, 0x88, 0x00, 0x00, 0x21, 0x00, 0x00,
   0x00, 0x00, 0x00, 0x00, 0x00, 0x00, 0x00, 0x00, 0x00, 0xf3, 0x4f, 0x06,
   0x00, 0xb8, 0x01, 0x00, 0x1f, 0x00, 0x00, 0x00, 0x00, 0x00, 0x00, 0x00,
   0x00, 0x00, 0x00, 0x00, 0x0f, 0xb0, 0x01, 0x00, 0x66, 0x06, 0x80, 0x03,
   0x00, 0x00, 0x00, 0x00, 0x00, 0x00, 0x00, 0x00, 0x00, 0x00, 0x00, 0xfe,
   0x2f, 0x00, 0x00, 0xec, 0x0d, 0x00, 0x1e, 0x00, 0x00, 0x00, 0x00, 0x00,
   0x00, 0x00, 0x00, 0x00, 0x00, 0x00, 0x19, 0x00, 0x00, 0x00, 0x5f, 0x12,
   0xf0, 0x01, 0x00, 0x00, 0x00, 0x00, 0x00, 0x00, 0x00, 0x00, 0x00, 0x00,
   0x00, 0x03, 0x00, 0x00, 0x00, 0xd1, 0xd6, 0x07, 0x07, 0x00, 0x00, 0x00,
   0x00, 0x00, 0x00, 0x00, 0x00, 0x00, 0x00, 0x80, 0x0c, 0x00, 0x00, 0x80,
   0x0e, 0x29, 0xf8, 0x03, 0x00, 0x00, 0x00, 0x00, 0x00, 0x00, 0x00, 0x00,
   0x00, 0x00, 0x80, 0x09, 0x00, 0x00, 0x80, 0x0c, 0xf2, 0x11, 0x00, 0x00,
   0x00, 0x00, 0x00, 0x00, 0x00, 0x00, 0x00, 0x00, 0x00, 0x00, 0x07, 0x00,
   0x00, 0x40, 0x03, 0x0c, 0xee, 0x00, 0x00, 0x00, 0x80, 0xdf, 0x03, 0x00,
   0x00, 0x00, 0x00, 0x00, 0x00, 0x1f, 0x00, 0x00, 0xe0, 0x07, 0xf0, 0x05,
   0x00, 0x00, 0x00, 0x20, 0x10, 0x0e, 0x00, 0x00, 0x00, 0x00, 0x00, 0x00,
   0x00, 0x00, 0x00, 0x40, 0x00, 0x00, 0x00, 0x00, 0x00, 0x00, 0xd0, 0xff,
   0x31, 0x00, 0x00, 0x00, 0x00, 0x00, 0x00, 0x0f, 0x00, 0x00, 0xc0, 0x03,
   0x00, 0x00, 0x00, 0x00, 0x00, 0x10, 0x00, 0x67, 0x00, 0x00, 0x00, 0x00,
   0x00, 0x00, 0x12, 0x00, 0x00, 0x20, 0x00, 0x00, 0x00, 0x00, 0x00, 0x00,
   0xee, 0xff, 0x98, 0x00, 0x00, 0x00, 0x00, 0x00, 0x00, 0x1e, 0x00, 0x00,
   0xe0, 0x03, 0x00, 0x00, 0x00, 0x00, 0x08, 0xfa, 0x01, 0xb2, 0x01, 0x00,
   0x00, 0x00, 0x00, 0x00, 0x27, 0x00, 0x00, 0x20, 0x00, 0x00, 0x00, 0x00,
   0xf0, 0xf7, 0x0d, 0x00, 0x48, 0x02, 0x00, 0x00, 0x00, 0x00, 0x00, 0x2c,
   0x00, 0x00, 0xe0, 0x01, 0x00, 0x00, 0x00, 0x06, 0x04, 0x1b, 0x00, 0xd0,
   0x02, 0x00, 0x00, 0x00, 0x00, 0x00, 0x12, 0x00, 0x00, 0xd0, 0x02, 0x00,
   0x00, 0x80, 0xf9, 0xfb, 0x04, 0x00, 0x20, 0x05, 0x00, 0x00, 0x00, 0x00,
   0x00, 0x76, 0x00, 0x00, 0x90, 0x03, 0x00, 0x00, 0x20, 0x03, 0xc2, 0x0d,
   0x00, 0x40, 0x05, 0x00, 0x00, 0x00, 0x00, 0x00, 0x0c, 0x00, 0x00, 0xe0,
   0x00, 0x00, 0x00, 0xd8, 0xfc, 0xbf, 0x06, 0x00, 0xc0, 0x0a, 0x00, 0x00,
   0xc0, 0x03, 0x00, 0xf8, 0x00, 0x00, 0x00, 0x03, 0x00, 0x00, 0x90, 0x1f,
   0xa0, 0x05, 0x00, 0x80, 0x0a, 0x00, 0x00, 0x38, 0x3c, 0x00, 0x00, 0x01,
   0x00, 0xe0, 0x00, 0x00, 0x00, 0xee, 0x01, 0xc0, 0x02, 0x00, 0x80, 0x05,
   0x00, 0x00, 0xe2, 0x61, 0x00, 0x78, 0x01, 0x00, 0xc0, 0x03, 0x00, 0x00,
   0x38, 0x00, 0x80, 0x02, 0x00, 0x80, 0x0d, 0x00, 0x80, 0x1f, 0x9e, 0x01,
   0x90, 0x02, 0x00, 0xa0, 0x04, 0x00, 0x80, 0x4f, 0x00, 0x60, 0x01, 0x00,
   0x00, 0x03, 0x00, 0x00, 0xf0, 0x30, 0x01, 0xa0, 0x06, 0x00, 0x80, 0x05,
   0x00, 0x00, 0x1b, 0x00, 0xc0, 0x03, 0x00, 0x00, 0x0f, 0x00, 0xc0, 0x3f,
   0xcc, 0x02, 0x60, 0x09, 0x00, 0xc0, 0x0a, 0x00, 0xe0, 0x04, 0x00, 0x60,
   0x00, 0x00, 0x80, 0x02, 0x00, 0x00, 0x07, 0x90, 0x06, 0x40, 0x3b, 0x00,
   0x80, 0x12, 0x00, 0xc0, 0x05, 0x00, 0xc0, 0x03, 0x00, 0x80, 0x0e, 0x00,
   0xe0, 0x00, 0x60, 0x09, 0x80, 0x44, 0x00, 0x60, 0xed, 0x01, 0x30, 0x02,
   0x00, 0xa0, 0x00, 0x00, 0x00, 0x03, 0x00, 0xf0, 0x03, 0x40, 0x0b, 0x00,
   0xdd, 0x01, 0x4e, 0x0d, 0x0f, 0xf0, 0x01, 0x00, 0x80, 0x03, 0x00, 0x00,
   0x0e, 0x00, 0x00, 0x00, 0x80, 0x04, 0x00, 0x22, 0x8e, 0xb9, 0xf2, 0x30,
   0xc8, 0x00, 0x00, 0xc0, 0x04, 0x00, 0xc0, 0x03, 0x00, 0xf8, 0x01, 0x80,
   0x1d, 0x00, 0x68, 0x18, 0xe3, 0x86, 0x67, 0x9c, 0x00, 0x00, 0x80, 0x0f,
   0x00, 0x40, 0x06, 0x00, 0xc0, 0x00, 0x00, 0x03, 0x00, 0x90, 0xe7, 0x3c,
   0x7d, 0x98, 0x71, 0x00, 0x00, 0x80, 0x10, 0x00, 0xa0, 0x03, 0x00, 0x98,
   0x00, 0x00, 0x1f, 0x00, 0x40, 0x94, 0x01, 0x00, 0x33, 0x47, 0x00, 0x00,
   0x80, 0x37, 0x00, 0x60, 0x02, 0x00, 0x78, 0x00, 0x00, 0x02, 0x00, 0x00,
   0xeb, 0x02, 0x00, 0xc8, 0x3c, 0x00, 0x00, 0x00, 0x48, 0x00, 0x9c, 0x01,
   0x00, 0xc0, 0x00, 0x00, 0x1e, 0x00, 0x00, 0xbe, 0x00, 0x00, 0x90, 0x39,
   0x00, 0x00, 0x00, 0xda, 0x01, 0x79, 0x01, 0x00, 0x38, 0x01, 0x80, 0x07,
   0x00, 0x00, 0x41, 0x00, 0x00, 0x60, 0x07, 0x00, 0x00, 0x00, 0x24, 0xfe,
   0x96, 0x00, 0x00, 0x70, 0x01, 0x00, 0x0c, 0x00, 0x00, 0x1f, 0x00, 0x00,
   0x00, 0x1e, 0x00, 0x00, 0x00, 0xe8, 0x80, 0x74, 0x00, 0x00, 0xa0, 0x02,
   0xc0, 0x07, 0x00, 0x80, 0x05, 0x00, 0x00, 0x00, 0x01, 0x00, 0x00, 0x00,
   0x10, 0x7f, 0x1b, 0x00, 0x00, 0xa0, 0x02, 0x40, 0x0c, 0x00, 0x00, 0x0d,
   0x00, 0x00, 0x00, 0x3f, 0x00, 0x00, 0x00, 0x40, 0xc0, 0x03, 0x00, 0x00,
   0x60, 0x0d, 0xb0, 0x07, 0x00, 0xc0, 0x03, 0x00, 0x00, 0x00, 0x5e, 0x00,
   0x00, 0x00, 0x00, 0x7e, 0x00, 0x00, 0x00, 0x40, 0x29, 0xe4, 0x00, 0x00,
   0x00, 0x06, 0x00, 0x00, 0x00, 0x50, 0x00, 0x00, 0x00, 0x00, 0x00, 0x00,
   0x00, 0x00, 0xc0, 0xd6, 0x1b, 0x03, 0x00, 0xe0, 0x05, 0x00, 0x00, 0x00,
   0xac, 0x00, 0x00, 0x00, 0x00, 0x00, 0x00, 0x00, 0x00, 0x80, 0x1c, 0xf2,
   0x00, 0x00, 0x20, 0x01, 0x00, 0x00, 0x00, 0xa8, 0x00, 0x00, 0x00, 0x00,
   0x00, 0x00, 0x00, 0x00, 0x00, 0xe2, 0x1d, 0x00, 0x00, 0xc0, 0x03, 0x00,
   0x00, 0x00, 0x58, 0xf8, 0xff, 0x00, 0x00, 0x00, 0x00, 0x00, 0x00, 0x00,
   0x0c, 0x77, 0x00, 0x00, 0x10, 0x02, 0x00, 0x00, 0x00, 0xd8, 0x03, 0x80,
   0x03, 0x00, 0x00, 0x00, 0x00, 0x00, 0x00, 0xe0, 0x39, 0x00, 0x00, 0xe0,
   0x01, 0x00, 0x00, 0x00, 0x30, 0xfc, 0x7f, 0x0c, 0x00, 0x00, 0x00, 0x00,
   0x00, 0x00, 0x00, 0xe0, 0x00, 0x00, 0x20, 0x01, 0x00, 0x00, 0x00, 0xf0,
   0x01, 0xc0, 0x39, 0x00, 0x00, 0x00, 0x00, 0x00, 0x00, 0x00, 0x1c, 0x01,
   0x00, 0xd0, 0x00, 0x00, 0x00, 0x00, 0x20, 0xfe, 0x3f, 0x46, 0x00, 0x00,
   0x00, 0x00, 0x00, 0x00, 0x00, 0x70, 0x07, 0x00, 0x98, 0x01, 0x00, 0x00,
   0x00, 0xe0, 0x0f, 0x80, 0xdc, 0x00, 0x00, 0x00, 0x00, 0x00, 0x00, 0x00,
   0x80, 0x18, 0x00, 0x66, 0x00, 0x00, 0x00, 0x00, 0xf0, 0x00, 0x00, 0x22,
   0x01, 0x00, 0x00, 0x00, 0x00, 0x00, 0x00, 0xa0, 0xf3, 0x71, 0xec, 0x01,
   0x00, 0x00, 0x00, 0x80, 0x01, 0x00, 0x68, 0x1f, 0x00, 0x00, 0x00, 0x00,
   0x00, 0x00, 0x40, 0x0c, 0x8e, 0x53, 0x00, 0x00, 0x00, 0x00, 0x70, 0x00,
   0x00, 0x90, 0xe0, 0x01, 0x00, 0x00, 0x00, 0x00, 0x00, 0x00, 0x79, 0x58,
   0x5e, 0x01, 0x00, 0x00, 0x00, 0xc0, 0x01, 0x00, 0xb0, 0x0f, 0x03, 0x00,
   0x00, 0x00, 0x00, 0x00, 0x00, 0x84, 0xa7, 0xa1, 0x00, 0x00, 0x00, 0x00,
   0xf8, 0x00, 0x00, 0x78, 0xf0, 0x0c, 0x00, 0x00, 0x00, 0x00, 0x00, 0x00,
   0x70, 0x7c, 0xe1, 0x03, 0x00, 0x00, 0x00, 0x98, 0x00, 0x00, 0xe0, 0x87,
   0x19, 0x00, 0x00, 0x00, 0x00, 0x00, 0x00, 0x00, 0x07, 0x00, 0x00, 0x00,
   0x00, 0x00, 0x60, 0x00, 0x00, 0xde, 0x73, 0x26, 0x00, 0x00, 0x00, 0x00,
   0x00, 0x00, 0x00, 0x00, 0xe0, 0x07, 0x00, 0x00, 0x00, 0xcc, 0x00, 0x00,
   0x10, 0x80, 0x2c, 0x00, 0x00, 0x00, 0x00, 0x00, 0x00, 0x00, 0x00, 0x40,
   0x00, 0x00, 0x00, 0x00, 0x30, 0x00, 0x00, 0x2f, 0x00, 0x52, 0x00, 0x00,
   0x00, 0x00, 0x00, 0x00, 0x00, 0x00, 0xc0, 0x0f, 0x00, 0x00, 0x00, 0x7e,
   0x00, 0x00, 0x0f, 0x00, 0x54, 0x00, 0x00, 0x00, 0xf8, 0x0f, 0x00, 0x00,
   0x00, 0x80, 0x00, 0x00, 0x00, 0x00, 0x27, 0x00, 0x80, 0x08, 0x00, 0xac,
   0x00, 0x00, 0x00, 0x02, 0x78, 0x00, 0x00, 0x00, 0x80, 0x1f, 0x00, 0x00,
   0x00, 0x2c, 0x00, 0x80, 0x0b, 0x00, 0xa8, 0x00, 0x00, 0x80, 0xfd, 0x87,
   0x00, 0x00, 0x00, 0x80, 0x21, 0x00, 0x00, 0x80, 0x13, 0x00, 0x00, 0x04,
   0x00, 0x58, 0x00, 0x00, 0x00, 0x01, 0x3c, 0x03, 0x00, 0x00, 0x00, 0x6f,
   0x00, 0x00, 0x00, 0x06, 0x00, 0xc0, 0x0d, 0x00, 0xd8, 0x00, 0x00, 0xe0,
   0xfe, 0xc3, 0x00, 0x00, 0x00, 0x80, 0x93, 0x01, 0x00, 0xf0, 0x0f, 0x00,
   0xc0, 0x03, 0x00, 0x30, 0x00, 0x00, 0x80, 0x0f, 0xd8, 0x0f, 0x00, 0x00,
   0x00, 0x36, 0x03, 0x00, 0xc0, 0x1c, 0x00, 0x00, 0x0f, 0x00, 0xf0, 0x00,
   0x00, 0xf8, 0x00, 0x00, 0x02, 0x00, 0x00, 0xc0, 0xcf, 0x0c, 0x00, 0x3f,
   0x63, 0x00, 0x80, 0x02, 0x00, 0x28, 0x00, 0x00, 0xb0, 0x01, 0x80, 0x1c,
   0x00, 0x00, 0x20, 0x94, 0xb9, 0x7f, 0x70, 0xce, 0x01, 0x80, 0x0e, 0x00,
   0xe8, 0x00, 0x00, 0x4c, 0x00, 0x00, 0x23, 0x00, 0x00, 0xc0, 0x43, 0x46,
   0x80, 0x8f, 0x31, 0x02, 0x00, 0x13, 0x00, 0x34, 0x00, 0x00, 0x5c, 0x00,
   0x00, 0x0f, 0x00, 0x00, 0x70, 0x82, 0xfc, 0x3f, 0x3e, 0xe4, 0x06, 0x00,
   0x16, 0x00, 0x66, 0x00, 0x00, 0x22, 0x00, 0x00, 0x72, 0x00, 0x00, 0x88,
   0x01, 0x02, 0xc0, 0x01, 0x10, 0x19, 0x00, 0x6b, 0x00, 0x3d, 0x00, 0x00,
   0x3e, 0x00, 0x00, 0x54, 0x00, 0x00, 0xf8, 0x01, 0xf0, 0xff, 0x01, 0x40,
   0x13, 0x00, 0xda, 0x41, 0x25, 0x00, 0x00, 0x09, 0x00, 0x00, 0x28, 0x00,
   0x00, 0x0c, 0x00, 0x00, 0x1f, 0x00, 0x80, 0x2c, 0x00, 0x24, 0xbe, 0x1a,
   0x00, 0x00, 0x1b, 0x00, 0x00, 0x48, 0x00, 0x00, 0x78, 0x00, 0x00, 0x70,
   0x00, 0x00, 0x79, 0x00, 0xe8, 0xa0, 0x06, 0x00, 0x00, 0x07, 0x00, 0x00,
   0x34, 0x00, 0x00, 0x1f, 0x00, 0x00, 0x0c, 0x00, 0x00, 0x86, 0x00, 0x10,
   0xdf, 0x01, 0x00, 0x00, 0x1c, 0x00, 0x00, 0x74, 0x00, 0x40, 0x30, 0x00,
   0x00, 0x78, 0x00, 0x00, 0xbc, 0x01, 0x60, 0xb0, 0x01, 0x00, 0x00, 0x07,
   0x00, 0x00, 0x08, 0x00, 0xa0, 0x1f, 0x00, 0x00, 0x9c, 0x00, 0x00, 0x40,
   0x00, 0x00, 0x5f, 0x00, 0x00, 0x00, 0x1d, 0x00, 0x00, 0x78, 0x00, 0xa8,
   0x01, 0x00, 0x00, 0xb0, 0x00, 0x00, 0xd0, 0x03, 0x00, 0x00, 0x00, 0x00,
   0x00, 0x02, 0x00, 0x00, 0x14, 0x00, 0x56, 0x06, 0x00, 0x00, 0x58, 0x00,
   0x00, 0x20, 0x00, 0x00, 0x00, 0x00, 0x00, 0x00, 0x3e, 0x00, 0x00, 0x54,
   0xd0, 0xf4, 0x01, 0x00, 0x00, 0xd0, 0x00, 0x00, 0xe0, 0x07, 0x00, 0x00,
   0x00, 0x00, 0x00, 0x06, 0x00, 0x00, 0xae, 0x2f, 0x1b, 0x00, 0x00, 0x00,
   0x38, 0x00, 0x00, 0x40, 0x00, 0x00, 0x00, 0x00, 0x00, 0x00, 0x5c, 0x00,
   0x00, 0x38, 0x78, 0x36, 0x00, 0x00, 0x00, 0xf0, 0x00, 0x00, 0xc0, 0x0f,
   0x00, 0x00, 0x00, 0x00, 0x00, 0xa4, 0x00, 0x00, 0xc7, 0x87, 0x0b, 0x00,
   0x00, 0x00, 0x08, 0x00, 0x00, 0x80, 0x00, 0x00, 0x00, 0x00, 0x00, 0x00,
   0xbc, 0x01, 0x00, 0x1c, 0xfc, 0x00, 0x00, 0x00, 0x00, 0xf8, 0x00, 0x00,
   0x80, 0x0f, 0x00, 0x00, 0x00, 0x00, 0x00, 0x40, 0x02, 0xe0, 0xf7, 0x17,
   0x00, 0x00, 0x00, 0x00, 0x30, 0x00, 0x00, 0x80, 0x11, 0x00, 0x00, 0x00,
   0x00, 0x00, 0x50, 0x0e, 0x08, 0x04, 0x00, 0x00, 0x00, 0x00, 0x00, 0xe4,
   0x00, 0x00, 0x00, 0x17, 0x00, 0x00, 0x00, 0x00, 0x00, 0xa0, 0xe1, 0xf7,
   0x07, 0x00, 0x00, 0x00, 0x00, 0x00, 0x3c, 0x00, 0x00, 0x00, 0x0b, 0x00,
   0x00, 0x00, 0x00, 0x00, 0x40, 0x0f, 0x84, 0x00, 0x00, 0x00, 0x00, 0x00,
   0x00, 0x60, 0x00, 0x00, 0x00, 0x1a, 0x00, 0x00, 0x00, 0x00, 0x00, 0x80,
   0xf0, 0x7b, 0x01, 0x00, 0x00, 0x00, 0x07, 0x00, 0x3e, 0x00, 0x00, 0x00,
   0x07, 0x00, 0x00, 0x00, 0x00, 0x00, 0x00, 0x07, 0x66, 0x00, 0x00, 0x00,
   0x70, 0x7c, 0x00, 0x26, 0x00, 0x00, 0x00, 0x1e, 0x00, 0x00, 0x00, 0x00,
   0x00, 0x00, 0xf8, 0x0b, 0x00, 0x00, 0x00, 0x88, 0x83, 0x01, 0x19, 0x00,
   0x00, 0x00, 0x05, 0x00, 0x00, 0x00, 0x00, 0x00, 0x00, 0x00, 0x00, 0x00,
   0x00, 0x00, 0x3a, 0x3e, 0x03, 0x17, 0x00, 0x00, 0x00, 0x1d, 0x00, 0x00,
   0x00, 0x00, 0x00, 0x00, 0x00, 0x00, 0x00, 0x00, 0x00, 0xc5, 0xc1, 0x84,
   0x18, 0x00, 0x00, 0x00, 0x06, 0x00, 0x00, 0x00, 0x00, 0x00, 0x00, 0x00,
   0x00, 0x00, 0x00, 0x00, 0xfd, 0x99, 0xad, 0x07, 0x00, 0x80, 0x07, 0x1c,
   0x00, 0x00, 0x00, 0x00, 0x00, 0x00, 0x00, 0x00, 0x00, 0x00, 0x80, 0x1e,
   0x40, 0xd2, 0x01, 0x00, 0x78, 0x78, 0x07, 0x00, 0x00, 0x00, 0x00, 0x00,
   0x00, 0x00, 0x00, 0x00, 0x00, 0x80, 0x01, 0x80, 0x36, 0x07, 0x00, 0xc2,
   0xc3, 0x1c, 0x00, 0x00, 0x00, 0x00, 0x00, 0x00, 0x00, 0x00, 0x00, 0x00,
   0xc0, 0x06, 0x00, 0xc9, 0x01, 0x80, 0x3d, 0x3c, 0x07, 0x00, 0x00, 0x00,
   0x00, 0x00, 0x00, 0x00, 0x00, 0x00, 0x00, 0xa0, 0x04, 0x00, 0x1a, 0x01,
   0x00, 0xe1, 0xe1, 0x0c, 0x00, 0x00, 0x00, 0x00, 0x00, 0x00, 0x00, 0x00,
   0x00, 0x00, 0x40, 0x03, 0x00, 0x6e, 0x00, 0xe0, 0x7e, 0x1c, 0x17, 0x00,
   0x00, 0x00, 0x00, 0x00, 0x00, 0x00, 0x00, 0x00, 0x00, 0xc0, 0x03, 0x00,
   0x78, 0x00, 0x80, 0x0f, 0xc0, 0x14, 0x00, 0x00, 0x00, 0x00, 0x00, 0x00,
   0x00, 0x00, 0x00, 0x00, 0x60, 0x00, 0x00, 0x0c, 0x00, 0xf0, 0x00, 0x00,
   0x2f, 0x00, 0x00, 0x00, 0x00, 0x00, 0x00, 0x00, 0x00, 0x00, 0x00, 0xd0,
   0x03, 0x00, 0x78, 0x00, 0xb0, 0x01, 0x00, 0x68, 0x00, 0x00, 0x00, 0x00,
   0x00, 0x00, 0x00, 0x00, 0x00, 0x00, 0x20, 0x00, 0x00, 0x04, 0x00, 0x48,
   0x00, 0x00, 0x16, 0x00, 0x00, 0x00, 0x00, 0x00, 0x00, 0x00, 0x00, 0x00,
   0x00, 0xe0, 0x03, 0x00, 0x7c, 0x00, 0xdc, 0x00, 0x00, 0xf4, 0x00, 0x00,
   0x00, 0x00, 0x00, 0x00, 0x00, 0x00, 0x00, 0x00, 0xe0, 0x00, 0x00, 0x1e,
   0x00, 0x60, 0x00, 0x00, 0x08, 0x00, 0x00, 0x00, 0x00, 0x00, 0x00, 0x00,
   0x00, 0x00, 0x00, 0x80, 0x07, 0x00, 0x30, 0x00, 0x5c, 0x00, 0x00, 0xf8,
   0x00, 0x00, 0x00, 0x00, 0x00, 0x00, 0x00, 0x00, 0x00, 0x00, 0x60, 0x00,
   0x00, 0x1f, 0x00, 0x2e, 0x00, 0x00, 0x10, 0x01, 0x00, 0x00, 0x00, 0x00,
   0x00, 0x00, 0x00, 0x00, 0x00, 0xc0, 0x0f, 0x00, 0x10, 0x00, 0x28, 0x00,
   0x00, 0x70, 0x01, 0x00, 0x00, 0x00, 0x00, 0x00, 0x00, 0x00, 0x00, 0x00,
   0x80, 0x10, 0xc0, 0x1f, 0x00, 0x16, 0x00, 0x00, 0x80, 0x00, 0x00, 0x00,
   0x00, 0x00, 0x00, 0x00, 0x00, 0x00, 0x00, 0x80, 0xf7, 0x98, 0x03, 0x00,
   0x3c, 0x00, 0x00, 0xb0, 0x01, 0x00, 0x00, 0x00, 0x00, 0x00, 0x00, 0x00,
   0x00, 0x00, 0x00, 0x09, 0x67, 0x04, 0x00, 0x06, 0x00, 0x00, 0x70, 0x00,
   0x00, 0x00, 0x00, 0x00, 0x00, 0x00, 0x00, 0x00, 0x00, 0x00, 0x7a, 0xec,
   0x03, 0x00, 0x3c, 0x00, 0x00, 0xe0, 0x01, 0x00, 0x00, 0x00, 0x00, 0x00,
   0x00, 0x00, 0x00, 0x00, 0x00, 0x84, 0x13, 0x00, 0x00, 0x4a, 0x00, 0x00,
   0x18, 0x00, 0x00, 0x00, 0x00, 0x00, 0x00, 0x00, 0x00, 0x00, 0x00, 0x00,
   0x30, 0x7e, 0x00, 0x00, 0x58, 0x00, 0x00, 0xe0, 0x00, 0x00, 0x00, 0x00,
   0x00, 0x00, 0x00, 0x00, 0x00, 0x00, 0x00, 0x80, 0x03, 0x00, 0x00, 0xac,
   0x00, 0x00, 0x5c, 0x00, 0x00, 0x00, 0x00, 0x00, 0x00, 0x00, 0x00, 0x00,
   0x00, 0x00, 0x00, 0x00, 0x00, 0x00, 0xa8, 0x00, 0x00, 0x18, 0x00, 0x00,
   0x00, 0x00, 0x00, 0x00, 0x00, 0x00, 0x00, 0x00, 0x00, 0x00, 0x00, 0x00,
   0x00, 0x58, 0x01, 0x00, 0x74, 0x00, 0x00, 0x00, 0x00, 0x00, 0x00, 0x00,
   0x00, 0x00, 0x00, 0x00, 0x00, 0x00, 0x00, 0x00, 0x50, 0x03, 0x00, 0x25,
   0x00, 0x00, 0x00, 0x00, 0x00, 0x00, 0x00, 0x00, 0x00, 0x00, 0x00, 0x00,
   0x00, 0x00, 0x00, 0xb0, 0x0c, 0x40, 0x1a, 0x00, 0x00, 0x00, 0x00, 0x00,
   0x00, 0x00, 0x00, 0x00, 0x00, 0x00, 0x00, 0x00, 0x00, 0x00, 0xa0, 0x39,
   0xd0, 0x13, 0x00, 0x00, 0x00, 0x00, 0x00, 0x00, 0x00, 0x00, 0x00, 0x00,
   0x00, 0x00, 0x00, 0x00, 0x00, 0x40, 0x46, 0xaf, 0x0c, 0x00, 0x00, 0x00,
   0x00, 0x00, 0x00, 0x00, 0x00, 0x00, 0x00, 0x00, 0x00, 0x00, 0x00, 0x00,
   0x80, 0x5c, 0xa8, 0x01, 0x00, 0x00, 0x00, 0x00, 0x00, 0x00, 0x00, 0x00,
   0x00, 0x00, 0x00, 0x00, 0x00, 0x00, 0x00, 0x00, 0xa3, 0x77, 0x00, 0x00,
   0x00, 0x00, 0x00, 0x00, 0x00, 0x00, 0x00, 0x00, 0x00, 0x00, 0x00, 0x00,
   0x00, 0x00, 0x00, 0x2c, 0xc4, 0x00, 0x00, 0x00, 0x00, 0x00, 0x00, 0x00,
   0x00, 0x00, 0x00, 0x00, 0x00, 0x00, 0x00, 0x00, 0x00, 0x00, 0xe0, 0x1b,
   0x00, 0x00, 0x00, 0x00, 0x00, 0x00 };
